<svg fill="none" height="16" viewBox="0 0 18 16" width="18" xmlns="http://www.w3.org/2000/svg"><path d="m16.462 1.49852c-.9922-.965893-2.31-1.49852-3.7125-1.49852s-2.7202.532627-3.71174 1.49779c-.01275.01242-.0255.02484-.03825.03799-.01275-.01315-.02475-.02484-.0375-.03726-.99225-.965893-2.31-1.49852-3.7125-1.49852s-2.72025.532627-3.7125 1.49852c-.992248.96588-1.53749828 2.2496-1.53749828 3.61587s.54600028 2.64998 1.53749828 3.61587l7.4625 7.26974 7.46249-7.26974c.9915-.96589 1.5375-2.2496 1.5375-3.61587 0-1.36554-.546-2.64999-1.5375-3.61587z" fill="#6441a4"/></svg>