<svg height="32" viewBox="0 0 37 32" width="37" xmlns="http://www.w3.org/2000/svg"><path d="m32.263 5.059c1.55-.998 2.739-2.582 3.297-4.467-1.451.927-3.055 1.597-4.765 1.96-1.365-1.572-3.316-2.551-5.476-2.551-4.143 0-7.5 3.617-7.5 8.077 0 .633.062 1.25.191 1.84-6.234-.337-11.761-3.55-15.464-8.44-.646 1.197-1.015 2.584-1.015 4.063 0 2.801 1.324 5.274 3.338 6.725-1.23-.042-2.387-.409-3.4-1.01v.099c0 3.915 2.584 7.181 6.021 7.92-.631.19-1.292.284-1.979.284-.483 0-.955-.049-1.41-.143.953 3.208 3.724 5.547 7.009 5.609-2.569 2.168-5.804 3.458-9.318 3.458-.605 0-1.204-.035-1.79-.111 3.321 2.29 7.264 3.628 11.501 3.628 13.803 0 21.346-12.309 21.346-22.984 0-.351-.004-.7-.019-1.045 1.466-1.139 2.741-2.563 3.744-4.183-1.346.643-2.793 1.077-4.308 1.271z"/></svg>